<?xml version="1.0" encoding="utf-8"?>
<!-- Generator: Adobe Illustrator 26.0.2, SVG Export Plug-In . SVG Version: 6.00 Build 0)  -->
<svg version="1.1" id="Layer_1" xmlns="http://www.w3.org/2000/svg" xmlns:xlink="http://www.w3.org/1999/xlink" x="0px" y="0px"
	 viewBox="0 0 313.6 325.3" style="enable-background:new 0 0 313.6 325.3;" xml:space="preserve">
<style type="text/css">
	.st0{stroke:#000000;stroke-miterlimit:10;}
</style>
<g>
	<circle class="st0" cx="91.2" cy="34.6" r="34.1"/>
	<path class="st0" d="M197.7,236c-15.6,6-31.1,12.1-46.7,18.1c27.4,44.1,32,59.5,28.1,62.8c-8,6.7-50-39.3-61.3-61.3
		c-2.8-5.4-4.8-11.5-3-17.6c2.5-8.7,10-12.2,11.1-12.8c16.4-6.1,32.8-12.3,49.3-18.4c-17.9-25.9-35.8-51.8-53.7-77.7
		c-11,10.4-21.9,20.8-32.9,31.3c-1.9,2.6-5,5.9-9.6,7.2c-10,2.8-20.2-6.1-28-13c-34.6-30.9-52.9-47.2-50.1-50.8
		c2-2.5,14.2,3.6,38.7,15.9c13.6,6.8,24.5,13,32.1,17.4c12-12.6,24.1-25.1,36.1-37.7c-0.2-3.8-0.8-18.3,6.2-21.7
		c5.5-2.6,13.2,2.3,21,8.8c32.6,27.5,57.1,77.3,85.1,119.6c17.2,26,25.1,33,46.3,67.5c13.7,22.3,29.4,47.9,25.8,50.8
		C289,327,270.3,313.4,197.7,236z"/>
	<path class="st0" d="M185.4,120.7c5,7.5,10,15,15.1,22.5c37.7-2.9,75.4-5.8,113.1-8.7C270.9,129.8,228.1,125.2,185.4,120.7z"/>
	<path class="st0" d="M159.5,78.6c5,7.5,10,15,15.1,22.5c37.7-2.9,75.4-5.8,113.1-8.7C244.9,87.8,202.2,83.2,159.5,78.6z"/>
</g>
</svg>
